<mxfile host="app.diagrams.net" agent="Mozilla/5.0 (Windows NT 10.0; Win64; x64) AppleWebKit/537.36 (KHTML, like Gecko) Chrome/134.0.0.0 Safari/537.36" version="26.2.13">
  <diagram name="Page-1" id="Vr4FyDBfp7hsWle50ezQ">
    <mxGraphModel dx="1428" dy="743" grid="1" gridSize="10" guides="1" tooltips="1" connect="1" arrows="1" fold="1" page="1" pageScale="1" pageWidth="827" pageHeight="1169" math="0" shadow="0">
      <root>
        <mxCell id="0" />
        <mxCell id="1" parent="0" />
        <mxCell id="39eaggNCai14YFWBOXsC-2" value="User" style="sketch=0;outlineConnect=0;gradientColor=none;fontColor=#545B64;strokeColor=none;fillColor=#879196;dashed=0;verticalLabelPosition=bottom;verticalAlign=top;align=center;html=1;fontSize=12;fontStyle=0;aspect=fixed;shape=mxgraph.aws4.illustration_devices;pointerEvents=1" parent="1" vertex="1">
          <mxGeometry x="350" y="40" width="100" height="73" as="geometry" />
        </mxCell>
        <mxCell id="3MtRr_3fXTdd8EKny9rF-1" value="AWS Cloud" style="points=[[0,0],[0.25,0],[0.5,0],[0.75,0],[1,0],[1,0.25],[1,0.5],[1,0.75],[1,1],[0.75,1],[0.5,1],[0.25,1],[0,1],[0,0.75],[0,0.5],[0,0.25]];outlineConnect=0;gradientColor=none;html=1;whiteSpace=wrap;fontSize=12;fontStyle=0;container=1;pointerEvents=0;collapsible=0;recursiveResize=0;shape=mxgraph.aws4.group;grIcon=mxgraph.aws4.group_aws_cloud_alt;strokeColor=#232F3E;fillColor=none;verticalAlign=top;align=left;spacingLeft=30;fontColor=#232F3E;dashed=0;" parent="1" vertex="1">
          <mxGeometry x="46" y="390" width="736" height="490" as="geometry" />
        </mxCell>
        <mxCell id="3MtRr_3fXTdd8EKny9rF-4" value="Region" style="points=[[0,0],[0.25,0],[0.5,0],[0.75,0],[1,0],[1,0.25],[1,0.5],[1,0.75],[1,1],[0.75,1],[0.5,1],[0.25,1],[0,1],[0,0.75],[0,0.5],[0,0.25]];outlineConnect=0;gradientColor=none;html=1;whiteSpace=wrap;fontSize=12;fontStyle=0;container=1;pointerEvents=0;collapsible=0;recursiveResize=0;shape=mxgraph.aws4.group;grIcon=mxgraph.aws4.group_region;strokeColor=#00A4A6;fillColor=none;verticalAlign=top;align=left;spacingLeft=30;fontColor=#147EBA;dashed=1;" parent="3MtRr_3fXTdd8EKny9rF-1" vertex="1">
          <mxGeometry x="30" y="30" width="680" height="440" as="geometry" />
        </mxCell>
        <mxCell id="3MtRr_3fXTdd8EKny9rF-7" value="VPC" style="points=[[0,0],[0.25,0],[0.5,0],[0.75,0],[1,0],[1,0.25],[1,0.5],[1,0.75],[1,1],[0.75,1],[0.5,1],[0.25,1],[0,1],[0,0.75],[0,0.5],[0,0.25]];outlineConnect=0;gradientColor=none;html=1;whiteSpace=wrap;fontSize=12;fontStyle=0;container=1;pointerEvents=0;collapsible=0;recursiveResize=0;shape=mxgraph.aws4.group;grIcon=mxgraph.aws4.group_vpc2;strokeColor=#8C4FFF;fillColor=none;verticalAlign=top;align=left;spacingLeft=30;fontColor=#AAB7B8;dashed=0;" parent="3MtRr_3fXTdd8EKny9rF-4" vertex="1">
          <mxGeometry x="49" y="37.5" width="582" height="392.5" as="geometry" />
        </mxCell>
        <mxCell id="3MtRr_3fXTdd8EKny9rF-9" value="&lt;span style=&quot;color: rgb(15, 20, 26); font-family: &amp;quot;Amazon Ember&amp;quot;, &amp;quot;Helvetica Neue&amp;quot;, Roboto, Arial, sans-serif; font-size: 14px; text-align: start; text-wrap-mode: nowrap; background-color: rgb(255, 255, 255);&quot;&gt;ap-southeast-1a&lt;/span&gt;" style="fillColor=none;strokeColor=#147EBA;dashed=1;verticalAlign=top;fontStyle=0;fontColor=#147EBA;whiteSpace=wrap;html=1;" parent="3MtRr_3fXTdd8EKny9rF-7" vertex="1">
          <mxGeometry x="46" y="61.5" width="213" height="217.5" as="geometry" />
        </mxCell>
        <mxCell id="3MtRr_3fXTdd8EKny9rF-10" value="&lt;span style=&quot;color: rgb(15, 20, 26); font-family: &amp;quot;Amazon Ember&amp;quot;, &amp;quot;Helvetica Neue&amp;quot;, Roboto, Arial, sans-serif; font-size: 14px; text-align: start; text-wrap-mode: nowrap; background-color: rgb(255, 255, 255);&quot;&gt;ap-southeast-1b&lt;/span&gt;" style="fillColor=none;strokeColor=#147EBA;dashed=1;verticalAlign=top;fontStyle=0;fontColor=#147EBA;whiteSpace=wrap;html=1;" parent="3MtRr_3fXTdd8EKny9rF-7" vertex="1">
          <mxGeometry x="326" y="61.5" width="213" height="217.5" as="geometry" />
        </mxCell>
        <mxCell id="3MtRr_3fXTdd8EKny9rF-11" value="Public subnet" style="points=[[0,0],[0.25,0],[0.5,0],[0.75,0],[1,0],[1,0.25],[1,0.5],[1,0.75],[1,1],[0.75,1],[0.5,1],[0.25,1],[0,1],[0,0.75],[0,0.5],[0,0.25]];outlineConnect=0;gradientColor=none;html=1;whiteSpace=wrap;fontSize=12;fontStyle=0;container=1;pointerEvents=0;collapsible=0;recursiveResize=0;shape=mxgraph.aws4.group;grIcon=mxgraph.aws4.group_security_group;grStroke=0;strokeColor=#7AA116;fillColor=#F2F6E8;verticalAlign=top;align=left;spacingLeft=30;fontColor=#248814;dashed=0;" parent="3MtRr_3fXTdd8EKny9rF-7" vertex="1">
          <mxGeometry x="77" y="111.5" width="143" height="137.5" as="geometry" />
        </mxCell>
        <mxCell id="3MtRr_3fXTdd8EKny9rF-14" value="CP2 EC2" style="text;strokeColor=none;align=center;fillColor=none;html=1;verticalAlign=middle;whiteSpace=wrap;rounded=0;" parent="3MtRr_3fXTdd8EKny9rF-11" vertex="1">
          <mxGeometry x="40" y="93.75" width="60" height="30" as="geometry" />
        </mxCell>
        <mxCell id="3MtRr_3fXTdd8EKny9rF-13" value="" style="sketch=0;points=[[0,0,0],[0.25,0,0],[0.5,0,0],[0.75,0,0],[1,0,0],[0,1,0],[0.25,1,0],[0.5,1,0],[0.75,1,0],[1,1,0],[0,0.25,0],[0,0.5,0],[0,0.75,0],[1,0.25,0],[1,0.5,0],[1,0.75,0]];outlineConnect=0;fontColor=#232F3E;fillColor=#ED7100;strokeColor=#ffffff;dashed=0;verticalLabelPosition=bottom;verticalAlign=top;align=center;html=1;fontSize=12;fontStyle=0;aspect=fixed;shape=mxgraph.aws4.resourceIcon;resIcon=mxgraph.aws4.ec2;" parent="3MtRr_3fXTdd8EKny9rF-7" vertex="1">
          <mxGeometry x="119.75" y="147.75" width="57.5" height="57.5" as="geometry" />
        </mxCell>
        <mxCell id="3MtRr_3fXTdd8EKny9rF-16" value="AWS Internet Gateway" style="text;strokeColor=none;align=center;fillColor=none;html=1;verticalAlign=middle;whiteSpace=wrap;rounded=0;" parent="3MtRr_3fXTdd8EKny9rF-7" vertex="1">
          <mxGeometry x="225" y="22.5" width="140" height="20" as="geometry" />
        </mxCell>
        <mxCell id="3MtRr_3fXTdd8EKny9rF-24" value="Public subnet" style="points=[[0,0],[0.25,0],[0.5,0],[0.75,0],[1,0],[1,0.25],[1,0.5],[1,0.75],[1,1],[0.75,1],[0.5,1],[0.25,1],[0,1],[0,0.75],[0,0.5],[0,0.25]];outlineConnect=0;gradientColor=none;html=1;whiteSpace=wrap;fontSize=12;fontStyle=0;container=1;pointerEvents=0;collapsible=0;recursiveResize=0;shape=mxgraph.aws4.group;grIcon=mxgraph.aws4.group_security_group;grStroke=0;strokeColor=#7AA116;fillColor=#F2F6E8;verticalAlign=top;align=left;spacingLeft=30;fontColor=#248814;dashed=0;" parent="3MtRr_3fXTdd8EKny9rF-7" vertex="1">
          <mxGeometry x="361" y="112.5" width="143" height="137.5" as="geometry" />
        </mxCell>
        <mxCell id="3MtRr_3fXTdd8EKny9rF-25" value="CP2 EC2" style="text;strokeColor=none;align=center;fillColor=none;html=1;verticalAlign=middle;whiteSpace=wrap;rounded=0;" parent="3MtRr_3fXTdd8EKny9rF-24" vertex="1">
          <mxGeometry x="40" y="93.75" width="60" height="30" as="geometry" />
        </mxCell>
        <mxCell id="3MtRr_3fXTdd8EKny9rF-26" value="" style="sketch=0;points=[[0,0,0],[0.25,0,0],[0.5,0,0],[0.75,0,0],[1,0,0],[0,1,0],[0.25,1,0],[0.5,1,0],[0.75,1,0],[1,1,0],[0,0.25,0],[0,0.5,0],[0,0.75,0],[1,0.25,0],[1,0.5,0],[1,0.75,0]];outlineConnect=0;fontColor=#232F3E;fillColor=#ED7100;strokeColor=#ffffff;dashed=0;verticalLabelPosition=bottom;verticalAlign=top;align=center;html=1;fontSize=12;fontStyle=0;aspect=fixed;shape=mxgraph.aws4.resourceIcon;resIcon=mxgraph.aws4.ec2;" parent="3MtRr_3fXTdd8EKny9rF-7" vertex="1">
          <mxGeometry x="403.75" y="148.75" width="57.5" height="57.5" as="geometry" />
        </mxCell>
        <mxCell id="3MtRr_3fXTdd8EKny9rF-27" value="" style="outlineConnect=0;dashed=0;verticalLabelPosition=bottom;verticalAlign=top;align=center;html=1;shape=mxgraph.aws3.application_load_balancer;fillColor=#F58536;gradientColor=none;" parent="3MtRr_3fXTdd8EKny9rF-7" vertex="1">
          <mxGeometry x="260" y="180" width="65.5" height="66.5" as="geometry" />
        </mxCell>
        <mxCell id="3MtRr_3fXTdd8EKny9rF-28" value="ALB" style="text;strokeColor=none;align=center;fillColor=none;html=1;verticalAlign=middle;whiteSpace=wrap;rounded=0;" parent="3MtRr_3fXTdd8EKny9rF-7" vertex="1">
          <mxGeometry x="261" y="245.5" width="60" height="30" as="geometry" />
        </mxCell>
        <mxCell id="3MtRr_3fXTdd8EKny9rF-29" value="" style="sketch=0;outlineConnect=0;fontColor=#232F3E;gradientColor=none;fillColor=#DD344C;strokeColor=none;dashed=0;verticalLabelPosition=bottom;verticalAlign=top;align=center;html=1;fontSize=12;fontStyle=0;aspect=fixed;pointerEvents=1;shape=mxgraph.aws4.network_firewall_endpoints;" parent="3MtRr_3fXTdd8EKny9rF-7" vertex="1">
          <mxGeometry x="256.5" y="61.5" width="67.5" height="67.5" as="geometry" />
        </mxCell>
        <mxCell id="3MtRr_3fXTdd8EKny9rF-31" value="Fortigate Firewall" style="text;strokeColor=none;align=center;fillColor=none;html=1;verticalAlign=middle;whiteSpace=wrap;rounded=0;" parent="3MtRr_3fXTdd8EKny9rF-7" vertex="1">
          <mxGeometry x="262.75" y="132.5" width="60" height="30" as="geometry" />
        </mxCell>
        <mxCell id="3MtRr_3fXTdd8EKny9rF-33" value="" style="sketch=0;points=[[0,0,0],[0.25,0,0],[0.5,0,0],[0.75,0,0],[1,0,0],[0,1,0],[0.25,1,0],[0.5,1,0],[0.75,1,0],[1,1,0],[0,0.25,0],[0,0.5,0],[0,0.75,0],[1,0.25,0],[1,0.5,0],[1,0.75,0]];outlineConnect=0;fontColor=#232F3E;fillColor=#DD344C;strokeColor=#ffffff;dashed=0;verticalLabelPosition=bottom;verticalAlign=top;align=center;html=1;fontSize=12;fontStyle=0;aspect=fixed;shape=mxgraph.aws4.resourceIcon;resIcon=mxgraph.aws4.waf;" parent="3MtRr_3fXTdd8EKny9rF-7" vertex="1">
          <mxGeometry x="264" y="312.5" width="57.5" height="57.5" as="geometry" />
        </mxCell>
        <mxCell id="3MtRr_3fXTdd8EKny9rF-34" value="AWS WAF" style="text;strokeColor=none;align=center;fillColor=none;html=1;verticalAlign=middle;whiteSpace=wrap;rounded=0;" parent="3MtRr_3fXTdd8EKny9rF-7" vertex="1">
          <mxGeometry x="264" y="362.5" width="60" height="30" as="geometry" />
        </mxCell>
        <mxCell id="3MtRr_3fXTdd8EKny9rF-36" value="" style="endArrow=classic;startArrow=classic;html=1;rounded=0;exitX=0.5;exitY=0;exitDx=0;exitDy=0;exitPerimeter=0;entryX=0.5;entryY=0;entryDx=0;entryDy=0;" parent="3MtRr_3fXTdd8EKny9rF-7" source="3MtRr_3fXTdd8EKny9rF-33" target="3MtRr_3fXTdd8EKny9rF-28" edge="1">
          <mxGeometry width="50" height="50" relative="1" as="geometry">
            <mxPoint x="265" y="312.5" as="sourcePoint" />
            <mxPoint x="315" y="262.5" as="targetPoint" />
          </mxGeometry>
        </mxCell>
        <mxCell id="3MtRr_3fXTdd8EKny9rF-45" value="" style="endArrow=classic;html=1;rounded=0;" parent="3MtRr_3fXTdd8EKny9rF-7" source="3MtRr_3fXTdd8EKny9rF-29" target="3MtRr_3fXTdd8EKny9rF-27" edge="1">
          <mxGeometry width="50" height="50" relative="1" as="geometry">
            <mxPoint x="265" y="-37.5" as="sourcePoint" />
            <mxPoint x="315" y="-87.5" as="targetPoint" />
          </mxGeometry>
        </mxCell>
        <mxCell id="3MtRr_3fXTdd8EKny9rF-46" value="" style="endArrow=classic;html=1;rounded=0;exitX=1.009;exitY=0.708;exitDx=0;exitDy=0;exitPerimeter=0;" parent="3MtRr_3fXTdd8EKny9rF-7" source="3MtRr_3fXTdd8EKny9rF-9" target="3MtRr_3fXTdd8EKny9rF-13" edge="1">
          <mxGeometry width="50" height="50" relative="1" as="geometry">
            <mxPoint x="265" y="-17.5" as="sourcePoint" />
            <mxPoint x="315" y="-67.5" as="targetPoint" />
          </mxGeometry>
        </mxCell>
        <mxCell id="3MtRr_3fXTdd8EKny9rF-47" value="" style="endArrow=classic;html=1;rounded=0;exitX=1;exitY=0.5;exitDx=0;exitDy=0;exitPerimeter=0;entryX=0;entryY=0.5;entryDx=0;entryDy=0;entryPerimeter=0;" parent="3MtRr_3fXTdd8EKny9rF-7" source="3MtRr_3fXTdd8EKny9rF-27" target="3MtRr_3fXTdd8EKny9rF-26" edge="1">
          <mxGeometry width="50" height="50" relative="1" as="geometry">
            <mxPoint x="270" y="215" as="sourcePoint" />
            <mxPoint x="187" y="194" as="targetPoint" />
          </mxGeometry>
        </mxCell>
        <mxCell id="3MtRr_3fXTdd8EKny9rF-15" value="" style="sketch=0;outlineConnect=0;fontColor=#232F3E;gradientColor=none;fillColor=#8C4FFF;strokeColor=none;dashed=0;verticalLabelPosition=bottom;verticalAlign=top;align=center;html=1;fontSize=12;fontStyle=0;aspect=fixed;pointerEvents=1;shape=mxgraph.aws4.internet_gateway;" parent="3MtRr_3fXTdd8EKny9rF-4" vertex="1">
          <mxGeometry x="309" y="2" width="60" height="60" as="geometry" />
        </mxCell>
        <mxCell id="3MtRr_3fXTdd8EKny9rF-44" value="" style="endArrow=classic;html=1;rounded=0;" parent="3MtRr_3fXTdd8EKny9rF-4" source="3MtRr_3fXTdd8EKny9rF-15" target="3MtRr_3fXTdd8EKny9rF-29" edge="1">
          <mxGeometry width="50" height="50" relative="1" as="geometry">
            <mxPoint x="314" as="sourcePoint" />
            <mxPoint x="364" y="-50" as="targetPoint" />
          </mxGeometry>
        </mxCell>
        <mxCell id="3MtRr_3fXTdd8EKny9rF-40" value="" style="group" parent="1" vertex="1" connectable="0">
          <mxGeometry x="344" y="230" width="140" height="60" as="geometry" />
        </mxCell>
        <mxCell id="3MtRr_3fXTdd8EKny9rF-38" value="" style="html=1;verticalLabelPosition=bottom;align=center;labelBackgroundColor=#ffffff;verticalAlign=top;strokeWidth=2;strokeColor=#0080F0;shadow=0;dashed=0;shape=mxgraph.ios7.icons.cloud;" parent="3MtRr_3fXTdd8EKny9rF-40" vertex="1">
          <mxGeometry width="140" height="60" as="geometry" />
        </mxCell>
        <mxCell id="3MtRr_3fXTdd8EKny9rF-39" value="&lt;font style=&quot;color: rgb(0, 102, 204);&quot;&gt;Imperva CDN WAF&lt;/font&gt;" style="text;strokeColor=none;align=center;fillColor=none;html=1;verticalAlign=middle;whiteSpace=wrap;rounded=0;" parent="3MtRr_3fXTdd8EKny9rF-40" vertex="1">
          <mxGeometry x="40" y="20" width="60" height="30" as="geometry" />
        </mxCell>
        <mxCell id="3MtRr_3fXTdd8EKny9rF-41" value="" style="endArrow=classic;html=1;rounded=0;entryX=0.514;entryY=0.017;entryDx=0;entryDy=0;entryPerimeter=0;" parent="1" target="3MtRr_3fXTdd8EKny9rF-38" edge="1">
          <mxGeometry width="50" height="50" relative="1" as="geometry">
            <mxPoint x="416" y="120" as="sourcePoint" />
            <mxPoint x="440" y="370" as="targetPoint" />
          </mxGeometry>
        </mxCell>
        <mxCell id="3MtRr_3fXTdd8EKny9rF-42" value="" style="endArrow=classic;html=1;rounded=0;" parent="1" target="3MtRr_3fXTdd8EKny9rF-15" edge="1">
          <mxGeometry width="50" height="50" relative="1" as="geometry">
            <mxPoint x="414" y="290" as="sourcePoint" />
            <mxPoint x="414" y="401" as="targetPoint" />
          </mxGeometry>
        </mxCell>
      </root>
    </mxGraphModel>
  </diagram>
</mxfile>
